# xmcd CD database file
#
# Track frame offsets:
#	150
#	9512
#	20058
#	30102
#	40810
#	50444
#	61773
#	73418
#	83868
#	92547
#	101123
#	110744
#	122431
#	135630
#	146937
#	159318
#	169777
#	178559
#	190204
#	199913
#	213015
#	225270
#	237851
#	251912
#	265749
#	279786
#	291950
#	305937
#	315142
#
# Disc length: 4414 seconds
#
# Revision: 0
# Processed by: cddbd v1.5.2PL0 Copyright (c) Steve Scherf et al.
# Submitted via: CDex 1.51
#
DISCID=92113c1d
DTITLE=Johnny Horton - Singles Collection 1950-60 D2 of 2
DYEAR=2017
DGENRE=Country
TTITLE0=I'm Coming Home
TTITLE1=She Knows Why
TTITLE2=Honky Tonk Mind (The Woman I Need)
TTITLE3=I'll Do It Every Time
TTITLE4=Let's Take the Long Way Home
TTITLE5=You're My Baby
TTITLE6=Lover's Rock
TTITLE7=Honky Tonk Hardwood Floor
TTITLE8=The Wild One
TTITLE9=All Grown Up
TTITLE10=Counterfeit Love
TTITLE11=When It's Springtime in Alaska (It's Forty Below)
TTITLE12=Whispering Pines
TTITLE13=The Battle of New Orleans
TTITLE14=All for the Love of a Girl
TTITLE15=Johnny Reb
TTITLE16=Sal's Got a Sugar Lip
TTITLE17=Take Me Like I Am
TTITLE18=They Shined Up Rudolph's Nose
TTITLE19=Sink The Bismarck
TTITLE20=The Same Old Tale the Crow Told Me
TTITLE21=Johnny Freedom
TTITLE22=Comanche (The Brave Horse)
TTITLE23=North To Alaska
TTITLE24=The Mansion You Stole
TTITLE25=Sleepy-Eyed John
TTITLE26=They'll Never Take Her Love from Me
TTITLE27=Ole Slew-Foot
TTITLE28=Miss Marcy
EXTD=YEAR: 2017
EXTT0=
EXTT1=
EXTT2=
EXTT3=
EXTT4=
EXTT5=
EXTT6=
EXTT7=
EXTT8=
EXTT9=
EXTT10=
EXTT11=
EXTT12=
EXTT13=
EXTT14=
EXTT15=
EXTT16=
EXTT17=
EXTT18=
EXTT19=
EXTT20=
EXTT21=
EXTT22=
EXTT23=
EXTT24=
EXTT25=
EXTT26=
EXTT27=
EXTT28=
PLAYORDER=
